<svg width="37" height="40" viewBox="0 0 37 40" fill="none" xmlns="http://www.w3.org/2000/svg">
<path d="M17.5002 40C20.258 40 22.5002 37.7578 22.5002 35H12.5002C12.5002 37.7656 14.7424 40 17.5002 40ZM34.3283 28.3047C32.8205 26.6797 29.9924 24.2422 29.9924 16.25C29.9924 10.1797 25.7346 5.32031 20.0002 4.125V2.5C20.0002 1.11719 18.883 0 17.5002 0C16.1174 0 15.0002 1.11719 15.0002 2.5V4.125C9.26583 5.32031 5.00802 10.1797 5.00802 16.25C5.00802 24.2422 2.1799 26.6797 0.672084 28.3047C0.203334 28.8125 -0.00760346 29.4141 0.000209041 30C0.00802154 31.2812 1.01583 32.5 2.50802 32.5H32.4924C33.9846 32.5 34.9924 31.2812 35.0002 30C35.008 29.4062 34.7971 28.8047 34.3283 28.3047Z" fill="#E7E8E9"/>
<g clip-path="url(#clip0_75_36)">
<rect x="21" width="16" height="15" rx="7.5" fill="#A200FF"/>
<path d="M26.97 9.42C27.61 8.88667 28.12 8.44333 28.5 8.09C28.88 7.73 29.1967 7.35667 29.45 6.97C29.7033 6.58333 29.83 6.20333 29.83 5.83C29.83 5.49 29.75 5.22333 29.59 5.03C29.43 4.83667 29.1833 4.74 28.85 4.74C28.5167 4.74 28.26 4.85333 28.08 5.08C27.9 5.3 27.8067 5.60333 27.8 5.99H26.44C26.4667 5.19 26.7033 4.58333 27.15 4.17C27.6033 3.75667 28.1767 3.55 28.87 3.55C29.63 3.55 30.2133 3.75333 30.62 4.16C31.0267 4.56 31.23 5.09 31.23 5.75C31.23 6.27 31.09 6.76667 30.81 7.24C30.53 7.71333 30.21 8.12667 29.85 8.48C29.49 8.82667 29.02 9.24667 28.44 9.74H31.39V10.9H26.45V9.86L26.97 9.42Z" fill="white"/>
</g>
<defs>
<clipPath id="clip0_75_36">
<rect x="21" width="16" height="15" rx="7.5" fill="white"/>
</clipPath>
</defs>
</svg>
