<svg width="24" height="24" viewBox="0 0 24 24" fill="none" xmlns="http://www.w3.org/2000/svg">
<g clip-path="url(#clip0_75_21)">
<path d="M23.6713 8.19361L21.815 6.33736C21.3744 5.89673 20.6619 5.89673 20.226 6.33736L8.99941 17.5639L3.77754 12.3374C3.33691 11.8967 2.62441 11.8967 2.18848 12.3374L0.327539 14.1983C-0.113086 14.6389 -0.113086 15.3514 0.327539 15.792L8.20254 23.6717C8.64316 24.1124 9.35566 24.1124 9.7916 23.6717L23.6666 9.78736C24.1072 9.34205 24.1072 8.62955 23.6713 8.19361ZM8.46973 13.1624C8.76035 13.4577 9.23848 13.4577 9.5291 13.1624L19.2791 3.40298C19.5697 3.10767 19.5697 2.63423 19.2791 2.34361L17.1604 0.220172C16.8697 -0.0751404 16.3916 -0.0751404 16.101 0.220172L8.99941 7.32173L6.40254 4.72017C6.11191 4.42486 5.63379 4.42486 5.34316 4.72017L3.21973 6.84361C2.9291 7.13892 2.9291 7.61236 3.21973 7.90298L8.46973 13.1624Z" fill="#F0F1F5"/>
</g>
<defs>
<clipPath id="clip0_75_21">
<rect width="24" height="24" fill="white"/>
</clipPath>
</defs>
</svg>
