<svg width="13" height="13" viewBox="0 0 13 13" fill="none" xmlns="http://www.w3.org/2000/svg">
<g clip-path="url(#clip0_75_66)">
<path d="M6.5 0.203125C3.02148 0.203125 0.203125 3.02148 0.203125 6.5C0.203125 9.97852 3.02148 12.7969 6.5 12.7969C9.97852 12.7969 12.7969 9.97852 12.7969 6.5C12.7969 3.02148 9.97852 0.203125 6.5 0.203125ZM8.84863 8.15039L8.34082 8.78516C8.30749 8.82686 8.26627 8.86158 8.21952 8.88734C8.17276 8.91311 8.12139 8.9294 8.06833 8.93529C8.01528 8.94119 7.96158 8.93657 7.91031 8.9217C7.85904 8.90683 7.8112 8.882 7.76953 8.84863L6.06836 7.58672C5.9496 7.49163 5.85371 7.37108 5.78779 7.23396C5.72187 7.09684 5.68759 6.94667 5.6875 6.79453V2.84375C5.6875 2.73601 5.7303 2.63267 5.80649 2.55649C5.88267 2.4803 5.98601 2.4375 6.09375 2.4375H6.90625C7.01399 2.4375 7.11733 2.4803 7.19351 2.55649C7.2697 2.63267 7.3125 2.73601 7.3125 2.84375V6.5L8.78516 7.5791C8.82686 7.61243 8.86158 7.65365 8.88734 7.7004C8.91311 7.74716 8.9294 7.79853 8.93529 7.85159C8.94119 7.90465 8.93657 7.95834 8.9217 8.00961C8.90683 8.06088 8.882 8.10872 8.84863 8.15039Z" fill="#FCEEEE"/>
</g>
<defs>
<clipPath id="clip0_75_66">
<rect width="13" height="13" fill="white"/>
</clipPath>
</defs>
</svg>
