<svg width="26" height="26" viewBox="0 0 26 26" fill="none" xmlns="http://www.w3.org/2000/svg">
<g clip-path="url(#clip0_75_154)">
<path d="M24.7503 16.0316L22.587 14.7824C22.8054 13.6043 22.8054 12.3957 22.587 11.2176L24.7503 9.96833C24.9991 9.82615 25.1109 9.53162 25.0296 9.2574C24.4659 7.44958 23.5062 5.81443 22.2519 4.45349C22.0589 4.24529 21.7441 4.19451 21.5003 4.33669L19.337 5.58591C18.428 4.80388 17.382 4.19958 16.2495 3.80349V1.31013C16.2495 1.02576 16.0515 0.776927 15.7722 0.71599C13.9085 0.299584 11.9991 0.319896 10.2269 0.71599C9.94758 0.776927 9.74953 1.02576 9.74953 1.31013V3.80857C8.62219 4.20974 7.57609 4.81404 6.66203 5.59099L4.50383 4.34177C4.255 4.19958 3.94523 4.24529 3.75226 4.45857C2.49797 5.81443 1.5382 7.44958 0.97453 9.26247C0.888201 9.53669 1.005 9.83122 1.25383 9.97341L3.41711 11.2226C3.19875 12.4008 3.19875 13.6094 3.41711 14.7875L1.25383 16.0367C1.005 16.1789 0.893279 16.4734 0.97453 16.7476C1.5382 18.5554 2.49797 20.1906 3.75226 21.5515C3.94523 21.7597 4.26008 21.8105 4.50383 21.6683L6.66711 20.4191C7.57609 21.2011 8.62219 21.8054 9.75461 22.2015V24.7C9.75461 24.9843 9.95266 25.2332 10.232 25.2941C12.0956 25.7105 14.005 25.6902 15.7773 25.2941C16.0566 25.2332 16.2546 24.9843 16.2546 24.7V22.2015C17.382 21.8004 18.428 21.1961 19.3421 20.4191L21.5054 21.6683C21.7542 21.8105 22.064 21.7648 22.257 21.5515C23.5112 20.1957 24.471 18.5605 25.0347 16.7476C25.1109 16.4683 24.9991 16.1738 24.7503 16.0316ZM12.9995 17.0625C10.7601 17.0625 8.93703 15.2394 8.93703 13C8.93703 10.7605 10.7601 8.93747 12.9995 8.93747C15.239 8.93747 17.062 10.7605 17.062 13C17.062 15.2394 15.239 17.0625 12.9995 17.0625Z" fill="#F0F1F5"/>
</g>
<defs>
<clipPath id="clip0_75_154">
<rect width="26" height="26" fill="white"/>
</clipPath>
</defs>
</svg>
