<svg width="22" height="22" viewBox="0 0 22 22" fill="none" xmlns="http://www.w3.org/2000/svg">
<path d="M14.0938 11C14.0938 12.7102 12.7102 14.0938 11 14.0938C9.28984 14.0938 7.90625 12.7102 7.90625 11C7.90625 9.28984 9.28984 7.90625 11 7.90625C12.7102 7.90625 14.0938 9.28984 14.0938 11ZM18.5625 7.90625C16.8523 7.90625 15.4688 9.28984 15.4688 11C15.4688 12.7102 16.8523 14.0938 18.5625 14.0938C20.2727 14.0938 21.6562 12.7102 21.6562 11C21.6562 9.28984 20.2727 7.90625 18.5625 7.90625ZM3.4375 7.90625C1.72734 7.90625 0.34375 9.28984 0.34375 11C0.34375 12.7102 1.72734 14.0938 3.4375 14.0938C5.14766 14.0938 6.53125 12.7102 6.53125 11C6.53125 9.28984 5.14766 7.90625 3.4375 7.90625Z" fill="#FCEEEE"/>
</svg>
