<svg width="29" height="25" viewBox="0 0 29 25" fill="none" xmlns="http://www.w3.org/2000/svg">
<g clip-path="url(#clip0_75_6)">
<path d="M14.1172 7.24119L4.83317 14.6533V22.6562C4.83317 22.8634 4.91804 23.0621 5.06911 23.2087C5.22018 23.3552 5.42508 23.4375 5.63873 23.4375L11.2827 23.4228C11.4954 23.4215 11.699 23.3387 11.849 23.1923C11.999 23.0459 12.0832 22.8479 12.0832 22.6416V17.9687C12.0832 17.7615 12.168 17.5628 12.3191 17.4163C12.4702 17.2698 12.6751 17.1875 12.8887 17.1875H16.1109C16.3246 17.1875 16.5295 17.2698 16.6806 17.4163C16.8316 17.5628 16.9165 17.7615 16.9165 17.9687V22.6367C16.9158 22.7397 16.9362 22.8418 16.9764 22.9372C17.0166 23.0325 17.0758 23.1192 17.1507 23.1923C17.2255 23.2653 17.3146 23.3233 17.4126 23.3629C17.5107 23.4025 17.6158 23.4228 17.7221 23.4228L23.3609 23.4375C23.5746 23.4375 23.7795 23.3552 23.9306 23.2087C24.0816 23.0621 24.1665 22.8634 24.1665 22.6562V14.6484L14.8875 7.24119C14.7784 7.15599 14.6425 7.10953 14.5024 7.10953C14.3622 7.10953 14.2263 7.15599 14.1172 7.24119ZM28.7783 12.2803L24.5693 8.916V2.1533C24.5693 1.9979 24.5056 1.84887 24.3923 1.73898C24.279 1.6291 24.1254 1.56736 23.9651 1.56736H21.1457C20.9854 1.56736 20.8318 1.6291 20.7185 1.73898C20.6052 1.84887 20.5415 1.9979 20.5415 2.1533V5.69822L16.0354 2.09959C15.6029 1.75437 15.06 1.56561 14.4998 1.56561C13.9396 1.56561 13.3968 1.75437 12.9642 2.09959L0.216332 12.2803C0.155154 12.3293 0.104538 12.3895 0.0673781 12.4576C0.0302179 12.5256 0.00724083 12.6 -0.000240061 12.6767C-0.00772096 12.7533 0.000440887 12.8306 0.0237791 12.9042C0.0471174 12.9778 0.0851746 13.0461 0.135776 13.1054L1.41963 14.6191C1.47025 14.6792 1.53265 14.7289 1.60323 14.7653C1.6738 14.8018 1.75114 14.8243 1.83075 14.8316C1.91037 14.8389 1.99068 14.8307 2.06703 14.8077C2.14338 14.7846 2.21425 14.7471 2.27553 14.6972L14.1172 5.23924C14.2263 5.15403 14.3622 5.10758 14.5024 5.10758C14.6425 5.10758 14.7784 5.15403 14.8875 5.23924L26.7292 14.6972C26.7903 14.7463 26.8608 14.7832 26.9367 14.8059C27.0126 14.8285 27.0923 14.8364 27.1713 14.8292C27.2503 14.8219 27.3271 14.7996 27.3972 14.7636C27.4674 14.7275 27.5295 14.6785 27.58 14.6191L28.8639 13.1054C28.9142 13.0458 28.9519 12.9772 28.9748 12.9035C28.9978 12.8297 29.0055 12.7523 28.9975 12.6756C28.9896 12.599 28.9661 12.5246 28.9285 12.4568C28.8909 12.3889 28.8399 12.3289 28.7783 12.2803Z" fill="#F1F6FA"/>
</g>
<defs>
<clipPath id="clip0_75_6">
<rect width="29" height="25" fill="white"/>
</clipPath>
</defs>
</svg>
