<svg width="24" height="24" viewBox="0 0 24 24" fill="none" xmlns="http://www.w3.org/2000/svg">
<g clip-path="url(#clip0_75_15)">
<path d="M10.4908 6.13125L7.24708 0.726562C7.11377 0.505033 6.92546 0.321724 6.70042 0.194422C6.47538 0.0671193 6.22126 0.000145942 5.96271 0L0.750208 0C0.14552 0 -0.21073 0.684375 0.136145 1.18125L5.35333 8.63437C6.74552 7.33125 8.5174 6.44063 10.4908 6.13125ZM23.2502 0H18.0377C17.5127 0 17.0205 0.276562 16.7533 0.726562L13.5143 6.12656C15.483 6.43594 17.2549 7.32656 18.6518 8.62969L23.8643 1.18125C24.2111 0.684375 23.8549 0 23.2502 0ZM12.0002 7.5C7.44396 7.5 3.75021 11.1938 3.75021 15.75C3.75021 20.3062 7.44396 24 12.0002 24C16.5565 24 20.2502 20.3062 20.2502 15.75C20.2502 11.1938 16.5565 7.5 12.0002 7.5ZM16.3361 14.8734L14.5596 16.6078L14.9815 19.0547C15.0565 19.4953 14.5924 19.8281 14.1986 19.6219L12.0002 18.4641L9.80177 19.6219C9.40802 19.8328 8.94396 19.4953 9.01896 19.0547L9.44083 16.6078L7.66427 14.8734C7.34552 14.5641 7.51896 14.0203 7.96427 13.9547L10.4205 13.5984L11.5174 11.3719C11.6158 11.1703 11.808 11.0719 12.0002 11.0719C12.1924 11.0719 12.3846 11.1703 12.483 11.3719L13.5799 13.5984L16.0361 13.9547C16.4768 14.0203 16.6549 14.5641 16.3361 14.8734Z" fill="#F0F1F5"/>
</g>
<defs>
<clipPath id="clip0_75_15">
<rect width="24" height="24" fill="white"/>
</clipPath>
</defs>
</svg>
