<svg width="27" height="24" viewBox="0 0 27 24" fill="none" xmlns="http://www.w3.org/2000/svg">
<path d="M25.875 3H5.25C4.27031 3 3.44063 3.62812 3.13125 4.5H1.125C0.501562 4.5 0 5.00156 0 5.625V18.375C0 19.8234 1.17656 21 2.625 21H25.875C26.4984 21 27 20.4984 27 19.875V4.125C27 3.50156 26.4984 3 25.875 3ZM2.25 18.375V6.75H3V18.375C3 18.5813 2.83125 18.75 2.625 18.75C2.41875 18.75 2.25 18.5813 2.25 18.375ZM24.75 18.75H5.22188C5.24062 18.6281 5.25 18.5016 5.25 18.375V5.25H24.75V18.75ZM8.0625 13.125H14.4375C14.7469 13.125 15 12.8719 15 12.5625V8.0625C15 7.75313 14.7469 7.5 14.4375 7.5H8.0625C7.75313 7.5 7.5 7.75313 7.5 8.0625V12.5625C7.5 12.8719 7.75313 13.125 8.0625 13.125ZM9.375 9.375H13.125V11.25H9.375V9.375ZM7.5 15.9375V14.8125C7.5 14.5031 7.75313 14.25 8.0625 14.25H14.4375C14.7469 14.25 15 14.5031 15 14.8125V15.9375C15 16.2469 14.7469 16.5 14.4375 16.5H8.0625C7.75313 16.5 7.5 16.2469 7.5 15.9375ZM16.5 15.9375V14.8125C16.5 14.5031 16.7531 14.25 17.0625 14.25H21.9375C22.2469 14.25 22.5 14.5031 22.5 14.8125V15.9375C22.5 16.2469 22.2469 16.5 21.9375 16.5H17.0625C16.7531 16.5 16.5 16.2469 16.5 15.9375ZM16.5 9.1875V8.0625C16.5 7.75313 16.7531 7.5 17.0625 7.5H21.9375C22.2469 7.5 22.5 7.75313 22.5 8.0625V9.1875C22.5 9.49687 22.2469 9.75 21.9375 9.75H17.0625C16.7531 9.75 16.5 9.49687 16.5 9.1875ZM16.5 12.5625V11.4375C16.5 11.1281 16.7531 10.875 17.0625 10.875H21.9375C22.2469 10.875 22.5 11.1281 22.5 11.4375V12.5625C22.5 12.8719 22.2469 13.125 21.9375 13.125H17.0625C16.7531 13.125 16.5 12.8719 16.5 12.5625Z" fill="#F0F1F5"/>
</svg>
