<svg width="22" height="22" viewBox="0 0 22 22" fill="none" xmlns="http://www.w3.org/2000/svg">
<g clip-path="url(#clip0_75_17)">
<path d="M19.25 2.75H2.75C2.02065 2.75 1.32118 3.03973 0.805456 3.55546C0.289731 4.07118 0 4.77065 0 5.5L0 16.5C0 17.2293 0.289731 17.9288 0.805456 18.4445C1.32118 18.9603 2.02065 19.25 2.75 19.25H19.25C19.9793 19.25 20.6788 18.9603 21.1945 18.4445C21.7103 17.9288 22 17.2293 22 16.5V5.5C22 4.77065 21.7103 4.07118 21.1945 3.55546C20.6788 3.03973 19.9793 2.75 19.25 2.75ZM6.875 15.8125H3.4375C3.25516 15.8125 3.0803 15.7401 2.95136 15.6111C2.82243 15.4822 2.75 15.3073 2.75 15.125V14.4375C2.75 14.2552 2.82243 14.0803 2.95136 13.9514C3.0803 13.8224 3.25516 13.75 3.4375 13.75H6.875V15.8125ZM12.375 15.125C12.375 15.3073 12.3026 15.4822 12.1736 15.6111C12.0447 15.7401 11.8698 15.8125 11.6875 15.8125H8.25V13.75H11.6875C11.8698 13.75 12.0447 13.8224 12.1736 13.9514C12.3026 14.0803 12.375 14.2552 12.375 14.4375V15.125ZM19.25 9.625C19.25 9.98967 19.1051 10.3394 18.8473 10.5973C18.5894 10.8551 18.2397 11 17.875 11H4.125C3.76033 11 3.41059 10.8551 3.15273 10.5973C2.89487 10.3394 2.75 9.98967 2.75 9.625V6.875C2.75 6.51033 2.89487 6.16059 3.15273 5.90273C3.41059 5.64487 3.76033 5.5 4.125 5.5H17.875C18.2397 5.5 18.5894 5.64487 18.8473 5.90273C19.1051 6.16059 19.25 6.51033 19.25 6.875V9.625Z" fill="#F0F1F5"/>
</g>
<defs>
<clipPath id="clip0_75_17">
<rect width="22" height="22" fill="white"/>
</clipPath>
</defs>
</svg>
