<svg width="23" height="26" viewBox="0 0 23 26" fill="none" xmlns="http://www.w3.org/2000/svg">
<path d="M7.39286 24.3242H2.46429C1.10379 24.3242 0 23.2324 0 21.8867V4.01172C0 2.66602 1.10379 1.57422 2.46429 1.57422H7.39286C8.75335 1.57422 9.85714 2.66602 9.85714 4.01172V21.8867C9.85714 23.2324 8.75335 24.3242 7.39286 24.3242ZM23 21.8867V4.01172C23 2.66602 21.8962 1.57422 20.5357 1.57422H15.6071C14.2467 1.57422 13.1429 2.66602 13.1429 4.01172V21.8867C13.1429 23.2324 14.2467 24.3242 15.6071 24.3242H20.5357C21.8962 24.3242 23 23.2324 23 21.8867Z" fill="#E0E3EB"/>
</svg>
