<svg width="14" height="15" viewBox="0 0 14 15" fill="none" xmlns="http://www.w3.org/2000/svg">
<g clip-path="url(#clip0_75_75)">
<path d="M13 6.09375H8.5V1.875C8.5 1.35645 8.05313 0.9375 7.5 0.9375H6.5C5.94688 0.9375 5.5 1.35645 5.5 1.875V6.09375H1C0.446875 6.09375 0 6.5127 0 7.03125V7.96875C0 8.4873 0.446875 8.90625 1 8.90625H5.5V13.125C5.5 13.6436 5.94688 14.0625 6.5 14.0625H7.5C8.05313 14.0625 8.5 13.6436 8.5 13.125V8.90625H13C13.5531 8.90625 14 8.4873 14 7.96875V7.03125C14 6.5127 13.5531 6.09375 13 6.09375Z" fill="#777A7D"/>
</g>
<defs>
<clipPath id="clip0_75_75">
<rect width="14" height="15" fill="white"/>
</clipPath>
</defs>
</svg>
