<svg width="42" height="40" viewBox="0 0 42 40" fill="none" xmlns="http://www.w3.org/2000/svg">
<g clip-path="url(#clip0_75_57)">
<path d="M25.2 25H16.8C15.6384 25 14.7 26.1172 14.7 27.5V37.5C14.7 38.8828 15.6384 40 16.8 40H25.2C26.3616 40 27.3 38.8828 27.3 37.5V27.5C27.3 26.1172 26.3616 25 25.2 25ZM12.6 2.5C12.6 1.11719 11.6616 0 10.5 0H2.1C0.938437 0 0 1.11719 0 2.5V12.5C0 13.8828 0.938437 15 2.1 15H8.38031L13.1841 25C13.9125 23.5156 15.2512 22.5 16.8 22.5H16.8197L12.6 13.7109V10H27.3V5H12.6V2.5ZM39.9 0H31.5C30.3384 0 29.4 1.11719 29.4 2.5V12.5C29.4 13.8828 30.3384 15 31.5 15H39.9C41.0616 15 42 13.8828 42 12.5V2.5C42 1.11719 41.0616 0 39.9 0Z" fill="#EBC8FF"/>
</g>
<defs>
<clipPath id="clip0_75_57">
<rect width="42" height="40" fill="white"/>
</clipPath>
</defs>
</svg>
