<svg width="42" height="48" viewBox="0 0 42 48" fill="none" xmlns="http://www.w3.org/2000/svg">
<path d="M40.5 28.5C40.5 39.2719 31.7719 48 21 48C10.2281 48 1.5 39.2719 1.5 28.5C1.5 18.75 8.65313 10.6687 18 9.23438V6H15.375C14.7563 6 14.25 5.49375 14.25 4.875V1.125C14.25 0.50625 14.7563 0 15.375 0H26.625C27.2437 0 27.75 0.50625 27.75 1.125V4.875C27.75 5.49375 27.2437 6 26.625 6H24V9.23438C27.5156 9.77812 30.7219 11.2594 33.3469 13.4156L35.925 10.8375C36.3656 10.3969 37.0781 10.3969 37.5188 10.8375L40.1719 13.4906C40.6125 13.9312 40.6125 14.6437 40.1719 15.0844L37.4156 17.8406L37.3594 17.8969C39.3469 20.9344 40.5 24.5812 40.5 28.5ZM24 31.875V17.6719C24 17.0531 23.4937 16.5469 22.875 16.5469H19.125C18.5063 16.5469 18 17.0531 18 17.6719V31.875C18 32.4938 18.5063 33 19.125 33H22.875C23.4937 33 24 32.4938 24 31.875Z" fill="#EBC8FF"/>
</svg>
