<svg width="35" height="47" viewBox="0 0 35 47" fill="none" xmlns="http://www.w3.org/2000/svg">
<g clip-path="url(#clip0_75_50)">
<path d="M27.1615 19.6721L26.0495 8.8125H29.8958C31.1081 8.8125 32.0833 7.83027 32.0833 6.60938V2.20312C32.0833 0.982227 31.1081 0 29.8958 0H5.10417C3.89193 0 2.91667 0.982227 2.91667 2.20312V6.60938C2.91667 7.83027 3.89193 8.8125 5.10417 8.8125H8.95052L7.83854 19.6721C3.41797 21.7375 0 25.4553 0 30.1094C0 31.3303 0.97526 32.3125 2.1875 32.3125H14.5833V41.8594C14.5833 41.9695 14.6107 42.0889 14.6562 42.1898L16.8438 46.5961C17.1081 47.1377 17.8828 47.1377 18.1471 46.5961L20.3346 42.1898C20.3842 42.0869 20.4091 41.9737 20.4076 41.8594V32.3125H32.8034C34.0156 32.3125 34.9909 31.3303 34.9909 30.1094C34.9909 25.4094 31.5273 21.7191 27.1523 19.6721H27.1615Z" fill="#EBC8FF"/>
</g>
<defs>
<clipPath id="clip0_75_50">
<rect width="35" height="47" fill="white"/>
</clipPath>
</defs>
</svg>
