<svg width="23" height="23" viewBox="0 0 23 23" fill="none" xmlns="http://www.w3.org/2000/svg">
<g clip-path="url(#clip0_75_166)">
<path d="M9.53691 10.076H0.539063C0.242578 10.076 0 9.8334 0 9.53691V0.539062C0 0.242578 0.242578 0 0.539063 0H2.69531C2.9918 0 3.23438 0.242578 3.23438 0.539062V4.04746C5.2918 1.76543 8.2791 0.336914 11.5988 0.359375C17.7486 0.404297 22.6676 5.37266 22.6586 11.5225C22.6406 17.6678 17.6588 22.6406 11.5135 22.6406C8.63398 22.6406 6.01055 21.549 4.03398 19.7566C3.80488 19.55 3.7959 19.1906 4.01152 18.975L5.53887 17.4477C5.74102 17.2455 6.06445 17.2365 6.27559 17.4252C7.67266 18.6561 9.50547 19.4062 11.5135 19.4062C15.8844 19.4062 19.4197 15.8709 19.4197 11.5C19.4197 7.1291 15.8844 3.59375 11.5135 3.59375C8.88555 3.59375 6.55859 4.87402 5.12109 6.8416H9.53691C9.8334 6.8416 10.076 7.08418 10.076 7.38066V9.53691C10.076 9.8334 9.8334 10.076 9.53691 10.076Z" fill="#D8DCE5"/>
</g>
<defs>
<clipPath id="clip0_75_166">
<rect width="23" height="23" fill="white"/>
</clipPath>
</defs>
</svg>
