<svg width="99" height="100" viewBox="0 0 99 100" fill="none" xmlns="http://www.w3.org/2000/svg">
<g filter="url(#filter0_d_94_11)">
<rect x="2" width="91" height="91" rx="45.5" fill="#7C7A7C" fill-opacity="0.18" shape-rendering="crispEdges"/>
<rect x="4" y="2" width="87" height="87" rx="43.5" stroke="#666366" stroke-width="4" shape-rendering="crispEdges"/>
<path d="M30.3857 30.3555C30.3857 25.1895 34.6311 21 39.866 21H56.1347C61.3696 21 65.6149 25.1895 65.6149 30.3555C65.6149 33.627 63.9128 36.5078 61.33 38.1777C63.9128 39.8477 65.6149 42.7285 65.6149 46C65.6149 51.166 61.3696 55.3555 56.1347 55.3555H55.9269C53.4727 55.3555 51.2363 54.4375 49.554 52.9238V61.5469C49.554 66.7813 45.1998 71 39.9154 71C34.6904 71 30.3857 66.8203 30.3857 61.6445C30.3857 58.373 32.0878 55.4922 34.6607 53.8223C32.0878 52.1523 30.3857 49.2715 30.3857 46C30.3857 42.7285 32.0878 39.8477 34.6607 38.1777C32.0878 36.5078 30.3857 33.627 30.3857 30.3555ZM46.4467 39.7109H39.866C36.343 39.7109 33.493 42.5234 33.493 46C33.493 49.457 36.3232 52.2695 39.8264 52.2891C39.8363 52.2891 39.8561 52.2891 39.866 52.2891H46.4467V39.7109ZM49.554 46C49.554 49.4766 52.404 52.2891 55.9269 52.2891H56.1347C59.6477 52.2891 62.5076 49.4766 62.5076 46C62.5076 42.5234 59.6477 39.7109 56.1347 39.7109H55.9269C52.404 39.7109 49.554 42.5234 49.554 46ZM39.866 55.3555C39.8561 55.3555 39.8363 55.3555 39.8264 55.3555C36.3232 55.375 33.493 58.1875 33.493 61.6445C33.493 65.1113 36.3826 67.9336 39.9154 67.9336C43.5076 67.9336 46.4467 65.0625 46.4467 61.5469V55.3555H39.866ZM39.866 24.0664C36.343 24.0664 33.493 26.8789 33.493 30.3555C33.493 33.832 36.343 36.6445 39.866 36.6445H46.4467V24.0664H39.866ZM49.554 36.6445H56.1347C59.6477 36.6445 62.5076 33.832 62.5076 30.3555C62.5076 26.8789 59.6477 24.0664 56.1347 24.0664H49.554V36.6445Z" fill="#817C82"/>
</g>
<defs>
<filter id="filter0_d_94_11" x="0" y="0" width="99" height="100" filterUnits="userSpaceOnUse" color-interpolation-filters="sRGB">
<feFlood flood-opacity="0" result="BackgroundImageFix"/>
<feColorMatrix in="SourceAlpha" type="matrix" values="0 0 0 0 0 0 0 0 0 0 0 0 0 0 0 0 0 0 127 0" result="hardAlpha"/>
<feOffset dx="2" dy="5"/>
<feGaussianBlur stdDeviation="2"/>
<feComposite in2="hardAlpha" operator="out"/>
<feColorMatrix type="matrix" values="0 0 0 0 0 0 0 0 0 0 0 0 0 0 0 0 0 0 0.25 0"/>
<feBlend mode="normal" in2="BackgroundImageFix" result="effect1_dropShadow_94_11"/>
<feBlend mode="normal" in="SourceGraphic" in2="effect1_dropShadow_94_11" result="shape"/>
</filter>
</defs>
</svg>
